<svg xmlns="http://www.w3.org/2000/svg" xmlns:xlink="http://www.w3.org/1999/xlink" width="375" viewBox="0 0 375 375" height="375" version="1.0"><defs><g id="e"><path d="M 12.453125 -25.71875 L 12.453125 0 L 3.015625 0 L 3.015625 -41.4375 L 12.453125 -41.4375 L 28.9375 -15.71875 L 29.03125 -15.71875 L 29.03125 -41.4375 L 38.484375 -41.4375 L 38.484375 0 L 29.03125 0 L 12.5625 -25.71875 Z M 12.453125 -25.71875"/></g><g id="f"><path d="M 3.859375 -40.125 C 4.898438 -41.164062 6.140625 -41.6875 7.578125 -41.6875 C 9.023438 -41.6875 10.265625 -41.164062 11.296875 -40.125 C 12.335938 -39.09375 12.859375 -37.859375 12.859375 -36.421875 C 12.859375 -34.984375 12.335938 -33.742188 11.296875 -32.703125 C 10.265625 -31.660156 9.023438 -31.140625 7.578125 -31.140625 C 6.140625 -31.140625 4.898438 -31.660156 3.859375 -32.703125 C 2.828125 -33.742188 2.3125 -34.984375 2.3125 -36.421875 C 2.3125 -37.859375 2.828125 -39.09375 3.859375 -40.125 Z M 3.015625 -25.765625 L 3.015625 0 L 11.90625 0 L 11.90625 -25.765625 Z M 3.015625 -25.765625"/></g><g id="g"><path d="M 16.734375 -19.234375 C 15.054688 -19.234375 13.613281 -18.613281 12.40625 -17.375 C 11.195312 -16.132812 10.59375 -14.644531 10.59375 -12.90625 C 10.59375 -11.132812 11.195312 -9.628906 12.40625 -8.390625 C 13.613281 -7.148438 15.054688 -6.53125 16.734375 -6.53125 C 17.535156 -6.53125 18.296875 -6.628906 19.015625 -6.828125 C 19.734375 -7.035156 20.257812 -7.238281 20.59375 -7.4375 L 21.046875 -7.734375 L 24.0625 -1.5625 C 23.820312 -1.394531 23.492188 -1.179688 23.078125 -0.921875 C 22.660156 -0.671875 21.707031 -0.332031 20.21875 0.09375 C 18.726562 0.53125 17.128906 0.75 15.421875 0.75 C 11.640625 0.75 8.316406 -0.578125 5.453125 -3.234375 C 2.585938 -5.898438 1.15625 -9.09375 1.15625 -12.8125 C 1.15625 -16.5625 2.585938 -19.785156 5.453125 -22.484375 C 8.316406 -25.179688 11.640625 -26.53125 15.421875 -26.53125 C 17.128906 -26.53125 18.703125 -26.328125 20.140625 -25.921875 C 21.578125 -25.515625 22.597656 -25.113281 23.203125 -24.71875 L 24.0625 -24.109375 L 21.046875 -18.03125 C 19.941406 -18.832031 18.503906 -19.234375 16.734375 -19.234375 Z M 16.734375 -19.234375"/></g><g id="h"><path d="M 29.078125 -11.65625 L 10.40625 -11.65625 C 10.40625 -9.84375 10.988281 -8.5 12.15625 -7.625 C 13.332031 -6.757812 14.601562 -6.328125 15.96875 -6.328125 C 17.414062 -6.328125 18.554688 -6.519531 19.390625 -6.90625 C 20.222656 -7.289062 21.175781 -8.050781 22.25 -9.1875 L 28.6875 -5.984375 C 26.007812 -1.492188 21.554688 0.75 15.328125 0.75 C 11.441406 0.75 8.109375 -0.578125 5.328125 -3.234375 C 2.546875 -5.898438 1.15625 -9.109375 1.15625 -12.859375 C 1.15625 -16.609375 2.546875 -19.820312 5.328125 -22.5 C 8.109375 -25.1875 11.441406 -26.53125 15.328125 -26.53125 C 19.410156 -26.53125 22.734375 -25.347656 25.296875 -22.984375 C 27.859375 -20.617188 29.140625 -17.242188 29.140625 -12.859375 C 29.140625 -12.253906 29.117188 -11.851562 29.078125 -11.65625 Z M 10.65625 -16.578125 L 20.453125 -16.578125 C 20.242188 -17.921875 19.710938 -18.953125 18.859375 -19.671875 C 18.003906 -20.390625 16.910156 -20.75 15.578125 -20.75 C 14.097656 -20.75 12.921875 -20.363281 12.046875 -19.59375 C 11.179688 -18.820312 10.71875 -17.816406 10.65625 -16.578125 Z M 10.65625 -16.578125"/></g><g id="i"><path d="M 18.28125 -42.203125 C 20.53125 -42.203125 22.722656 -41.875 24.859375 -41.21875 C 27.003906 -40.5625 28.597656 -39.914062 29.640625 -39.28125 L 31.140625 -38.28125 L 27.328125 -30.75 C 27.023438 -30.945312 26.601562 -31.203125 26.0625 -31.515625 C 25.53125 -31.835938 24.523438 -32.265625 23.046875 -32.796875 C 21.578125 -33.335938 20.207031 -33.609375 18.9375 -33.609375 C 17.363281 -33.609375 16.148438 -33.269531 15.296875 -32.59375 C 14.441406 -31.925781 14.015625 -31.023438 14.015625 -29.890625 C 14.015625 -29.316406 14.210938 -28.785156 14.609375 -28.296875 C 15.015625 -27.816406 15.703125 -27.300781 16.671875 -26.75 C 17.648438 -26.195312 18.503906 -25.753906 19.234375 -25.421875 C 19.972656 -25.085938 21.113281 -24.582031 22.65625 -23.90625 C 25.332031 -22.769531 27.613281 -21.222656 29.5 -19.265625 C 31.394531 -17.304688 32.34375 -15.085938 32.34375 -12.609375 C 32.34375 -10.234375 31.914062 -8.15625 31.0625 -6.375 C 30.207031 -4.601562 29.035156 -3.210938 27.546875 -2.203125 C 26.054688 -1.203125 24.40625 -0.460938 22.59375 0.015625 C 20.789062 0.503906 18.835938 0.75 16.734375 0.75 C 14.921875 0.75 13.144531 0.5625 11.40625 0.1875 C 9.664062 -0.175781 8.207031 -0.632812 7.03125 -1.1875 C 5.863281 -1.738281 4.8125 -2.28125 3.875 -2.8125 C 2.9375 -3.34375 2.25 -3.796875 1.8125 -4.171875 L 1.15625 -4.71875 L 5.875 -12.65625 C 6.28125 -12.320312 6.832031 -11.894531 7.53125 -11.375 C 8.238281 -10.851562 9.488281 -10.15625 11.28125 -9.28125 C 13.070312 -8.414062 14.65625 -7.984375 16.03125 -7.984375 C 20.007812 -7.984375 22 -9.34375 22 -12.0625 C 22 -12.625 21.859375 -13.144531 21.578125 -13.625 C 21.296875 -14.113281 20.789062 -14.601562 20.0625 -15.09375 C 19.34375 -15.582031 18.707031 -15.96875 18.15625 -16.25 C 17.601562 -16.53125 16.695312 -16.960938 15.4375 -17.546875 C 14.1875 -18.140625 13.257812 -18.585938 12.65625 -18.890625 C 10.144531 -20.128906 8.203125 -21.675781 6.828125 -23.53125 C 5.453125 -25.394531 4.765625 -27.394531 4.765625 -29.53125 C 4.765625 -33.25 6.140625 -36.289062 8.890625 -38.65625 C 11.640625 -41.019531 14.769531 -42.203125 18.28125 -42.203125 Z M 18.28125 -42.203125"/></g><g id="j"><path d="M 3.015625 0 L 3.015625 -43.203125 L 11.90625 -43.203125 L 11.90625 -23.0625 L 12 -23.0625 C 14.3125 -25.375 16.773438 -26.53125 19.390625 -26.53125 C 20.660156 -26.53125 21.921875 -26.359375 23.171875 -26.015625 C 24.429688 -25.679688 25.640625 -25.160156 26.796875 -24.453125 C 27.953125 -23.753906 28.890625 -22.757812 29.609375 -21.46875 C 30.328125 -20.1875 30.6875 -18.691406 30.6875 -16.984375 L 30.6875 0 L 21.796875 0 L 21.796875 -14.5625 C 21.796875 -15.90625 21.367188 -17.078125 20.515625 -18.078125 C 19.660156 -19.085938 18.550781 -19.59375 17.1875 -19.59375 C 15.84375 -19.59375 14.625 -19.070312 13.53125 -18.03125 C 12.445312 -17 11.90625 -15.84375 11.90625 -14.5625 L 11.90625 0 Z M 3.015625 0"/></g><g id="k"><path d="M 5.453125 -3.0625 C 2.585938 -5.601562 1.15625 -8.867188 1.15625 -12.859375 C 1.15625 -16.847656 2.644531 -20.125 5.625 -22.6875 C 8.601562 -25.25 12.285156 -26.53125 16.671875 -26.53125 C 20.992188 -26.53125 24.632812 -25.238281 27.59375 -22.65625 C 30.5625 -20.070312 32.046875 -16.804688 32.046875 -12.859375 C 32.046875 -8.910156 30.597656 -5.65625 27.703125 -3.09375 C 24.804688 -0.53125 21.128906 0.75 16.671875 0.75 C 12.054688 0.75 8.316406 -0.519531 5.453125 -3.0625 Z M 12.328125 -17.21875 C 11.171875 -16.082031 10.59375 -14.628906 10.59375 -12.859375 C 10.59375 -11.085938 11.144531 -9.640625 12.25 -8.515625 C 13.363281 -7.390625 14.820312 -6.828125 16.625 -6.828125 C 18.363281 -6.828125 19.796875 -7.394531 20.921875 -8.53125 C 22.046875 -9.675781 22.609375 -11.117188 22.609375 -12.859375 C 22.609375 -14.628906 22.03125 -16.082031 20.875 -17.21875 C 19.71875 -18.363281 18.300781 -18.9375 16.625 -18.9375 C 14.914062 -18.9375 13.484375 -18.363281 12.328125 -17.21875 Z M 12.328125 -17.21875"/></g><g id="l"><path d="M 29.53125 -22.578125 C 31.945312 -19.953125 33.15625 -16.726562 33.15625 -12.90625 C 33.15625 -9.09375 31.945312 -5.863281 29.53125 -3.21875 C 27.125 -0.570312 24.0625 0.75 20.34375 0.75 C 16.925781 0.75 14.113281 -0.320312 11.90625 -2.46875 L 11.90625 13.0625 L 3.015625 13.0625 L 3.015625 -25.765625 L 11.8125 -25.765625 L 11.8125 -22.859375 L 11.90625 -22.859375 C 14.113281 -25.304688 16.925781 -26.53125 20.34375 -26.53125 C 24.0625 -26.53125 27.125 -25.210938 29.53125 -22.578125 Z M 21.96875 -8.53125 C 23.125 -9.675781 23.703125 -11.132812 23.703125 -12.90625 C 23.703125 -14.6875 23.148438 -16.132812 22.046875 -17.25 C 20.941406 -18.375 19.488281 -18.9375 17.6875 -18.9375 C 15.9375 -18.9375 14.5 -18.363281 13.375 -17.21875 C 12.257812 -16.082031 11.703125 -14.644531 11.703125 -12.90625 C 11.703125 -11.132812 12.28125 -9.675781 13.4375 -8.53125 C 14.59375 -7.394531 16.007812 -6.828125 17.6875 -6.828125 C 19.394531 -6.828125 20.820312 -7.394531 21.96875 -8.53125 Z M 21.96875 -8.53125"/></g><clipPath id="a"><path d="M 19 99.710938 L 98 99.710938 L 98 158 L 19 158 Z M 19 99.710938"/></clipPath><clipPath id="b"><path d="M 39 136 L 118.265625 136 L 118.265625 179 L 39 179 Z M 39 136"/></clipPath><clipPath id="c"><path d="M 7 118 L 37 118 L 37 198.710938 L 7 198.710938 Z M 7 118"/></clipPath><clipPath id="d"><path d="M 28 161 L 107 161 L 107 198.710938 L 28 198.710938 Z M 28 161"/></clipPath></defs><g clip-path="url(#a)"><path fill="#ED0E64" d="M 80.382812 125.492188 C 80.679688 126.898438 80.929688 128.347656 81.136719 129.835938 C 81.660156 129.820312 82.1875 129.8125 82.710938 129.8125 C 80.535156 114.535156 73.425781 103.328125 64.992188 103.328125 C 57.371094 103.328125 50.832031 112.464844 48.035156 125.492188 Z M 20.714844 127.664062 C 22.707031 122.742188 28.4375 119.78125 36.472656 118.800781 C 13.675781 125.4375 25.722656 140.136719 31.441406 145.738281 L 34.972656 125.492188 L 43.152344 125.492188 C 42.289062 129.890625 41.835938 134.59375 41.835938 139.421875 L 43.449219 139.421875 C 43.480469 129.175781 45.542969 119.492188 49.265625 112.140625 C 51.179688 108.367188 53.441406 105.378906 55.988281 103.25 C 58.800781 100.898438 61.832031 99.707031 64.992188 99.707031 C 68.148438 99.707031 71.179688 100.898438 73.992188 103.25 C 76.542969 105.378906 78.800781 108.367188 80.714844 112.140625 C 82.683594 116.027344 84.183594 120.566406 85.171875 125.492188 L 95.007812 125.492188 L 97.25 138.351562 C 85.847656 137.515625 76.304688 137.195312 65.375 141.054688 C 55.148438 144.667969 47.289062 149.695312 39.675781 157.457031 C 25.285156 147.332031 17.40625 135.847656 20.714844 127.664062"/></g><g clip-path="url(#b)"><path fill="#D20C57" d="M 64.59375 139.535156 C 75.523438 135.671875 86.863281 135.496094 97.25 138.351562 L 103.914062 176.558594 C 106.324219 176.71875 112.066406 176.835938 118.414062 175.082031 C 108.179688 181.039062 86.269531 179.460938 63.421875 170.203125 C 54.417969 166.554688 46.347656 162.152344 39.675781 157.457031 C 45.886719 149.488281 54.367188 143.144531 64.59375 139.535156"/></g><g clip-path="url(#c)"><path fill="#A7A5A6" d="M 8.03125 132.257812 C 9.753906 117.582031 27.386719 118.503906 27.386719 118.503906 C 19.75 119.714844 14.324219 122.757812 12.359375 127.617188 C 8.5625 137.011719 18.765625 150.539062 36.59375 161.839844 C 34.628906 169.035156 32.800781 173.058594 31.425781 179.320312 C 30.085938 185.414062 29.285156 191.253906 28.53125 198.3125 C 25.242188 197.183594 23.066406 193.777344 23.703125 190.125 L 28.515625 162.523438 C 21.664062 157.027344 6.695312 143.609375 8.03125 132.257812"/></g><g clip-path="url(#d)"><path fill="#918F8F" d="M 36.59375 161.839844 C 42.695312 165.707031 49.691406 169.3125 57.324219 172.40625 C 75.191406 179.644531 92.507812 182.421875 104.652344 180.800781 L 106.277344 190.125 C 107.058594 194.605469 103.613281 198.710938 99.066406 198.710938 L 30.917969 198.710938 C 30.078125 198.710938 29.273438 198.570312 28.53125 198.3125 C 26.820312 185.367188 29.855469 172.484375 36.59375 161.839844"/></g><g><use x="121.585" y="182.104" xmlns:xlink="http://www.w3.org/1999/xlink" xlink:href="#e" xlink:type="simple" xlink:actuate="onLoad" xlink:show="embed"/></g><g><use x="163.074" y="182.104" xmlns:xlink="http://www.w3.org/1999/xlink" xlink:href="#f" xlink:type="simple" xlink:actuate="onLoad" xlink:show="embed"/></g><g><use x="178.243" y="182.104" xmlns:xlink="http://www.w3.org/1999/xlink" xlink:href="#g" xlink:type="simple" xlink:actuate="onLoad" xlink:show="embed"/></g><g><use x="202.905" y="182.104" xmlns:xlink="http://www.w3.org/1999/xlink" xlink:href="#h" xlink:type="simple" xlink:actuate="onLoad" xlink:show="embed"/></g><g><use x="233.193" y="182.104" xmlns:xlink="http://www.w3.org/1999/xlink" xlink:href="#i" xlink:type="simple" xlink:actuate="onLoad" xlink:show="embed"/></g><g><use x="266.947" y="182.104" xmlns:xlink="http://www.w3.org/1999/xlink" xlink:href="#j" xlink:type="simple" xlink:actuate="onLoad" xlink:show="embed"/></g><g><use x="300.148" y="182.104" xmlns:xlink="http://www.w3.org/1999/xlink" xlink:href="#k" xlink:type="simple" xlink:actuate="onLoad" xlink:show="embed"/></g><g><use x="333.349" y="182.104" xmlns:xlink="http://www.w3.org/1999/xlink" xlink:href="#l" xlink:type="simple" xlink:actuate="onLoad" xlink:show="embed"/></g></svg>